<?xml version="1.0" standalone="no"?>
<!DOCTYPE svg PUBLIC "-//W3C//DTD SVG 20010904//EN"
 "http://www.w3.org/TR/2001/REC-SVG-20010904/DTD/svg10.dtd">
<svg version="1.0" xmlns="http://www.w3.org/2000/svg"
 width="100%" height="100%" viewBox="150 100 1000 1000"
 preserveAspectRatio="xMidYMid meet">

<g transform="translate(0.000000,582.000000) scale(0.100000,-0.100000)"
fill="#3697A7" stroke="none">
<path d="M2181 4764 c-147 -39 -278 -171 -317 -319 -57 -211 51 -439 251 -531
295 -135 635 85 635 410 0 300 -281 518 -569 440z"/>
<path d="M4195 4766 c-71 -18 -144 -58 -198 -108 -44 -42 -2019 -2506 -2072
-2586 -116 -176 -91 -417 59 -568 124 -123 316 -166 475 -105 132 50 88 -1
1189 1376 637 796 1039 1308 1060 1347 132 253 -13 570 -293 643 -70 18 -150
18 -220 1z"/>
<path d="M6195 4766 c-71 -18 -144 -58 -198 -108 -44 -42 -2019 -2506 -2072
-2586 -116 -176 -91 -417 59 -568 124 -123 316 -166 475 -105 132 50 88 -1
1189 1376 637 796 1039 1308 1060 1347 132 253 -13 570 -293 643 -70 18 -150
18 -220 1z"/>
<path d="M7271 4764 c-210 -56 -356 -261 -338 -474 14 -172 130 -326 295 -392
55 -22 70 -23 385 -26 180 -2 327 -5 327 -8 0 -2 -315 -397 -699 -878 -384
-480 -711 -891 -725 -913 -117 -177 -93 -418 58 -569 124 -123 316 -166 475
-105 132 50 88 -1 1189 1376 637 796 1039 1308 1060 1347 132 253 -13 570
-293 643 -86 22 -1651 21 -1734 -1z"/>
</g>
</svg>
